<svg xmlns="http://www.w3.org/2000/svg" xmlns:xlink="http://www.w3.org/1999/xlink" viewBox="0 0 1100 654.96">
    <defs>
        <style>.cls-1,.cls-26,.cls-27{fill:none;}.cls-2{isolation:isolate;}.cls-3{fill:url(#linear-gradient);}.cls-14,.cls-16,.cls-4{mix-blend-mode:multiply;}.cls-4{opacity:0.36;fill:url(#linear-gradient-2);}.cls-5{fill:url(#linear-gradient-3);}.cls-6{opacity:0.76;}.cls-7{clip-path:url(#clip-path);}.cls-8{fill:#ffacc9;}.cls-9{clip-path:url(#clip-path-2);}.cls-10{fill:url(#linear-gradient-4);}.cls-11,.cls-22{fill:#fff;}.cls-11{mix-blend-mode:overlay;opacity:0.68;}.cls-12{fill:url(#linear-gradient-5);}.cls-13{fill:url(#linear-gradient-6);}.cls-14{opacity:0.3;fill:url(#linear-gradient-7);}.cls-15{fill:url(#linear-gradient-8);}.cls-16{opacity:0.48;fill:url(#linear-gradient-9);}.cls-17{clip-path:url(#clip-path-3);}.cls-18,.cls-19,.cls-20,.cls-21{mix-blend-mode:soft-light;}.cls-18{fill:url(#linear-gradient-10);}.cls-19{fill:url(#linear-gradient-11);}.cls-20{fill:url(#linear-gradient-12);}.cls-21{fill:url(#linear-gradient-13);}.cls-23{opacity:0.28;}.cls-24{clip-path:url(#clip-path-4);}.cls-25{clip-path:url(#clip-path-5);}.cls-26,.cls-27{stroke:#fff;stroke-miterlimit:10;}.cls-26{stroke-width:2px;}.cls-27{stroke-width:1.31px;}.cls-28{fill:url(#linear-gradient-14);}.cls-29{fill:url(#linear-gradient-15);}.cls-30{fill:url(#linear-gradient-16);}.cls-31{fill:url(#linear-gradient-17);}.cls-32{fill:url(#linear-gradient-18);}.cls-33{fill:url(#linear-gradient-19);}.cls-34{fill:url(#linear-gradient-20);}.cls-35{fill:url(#linear-gradient-21);}.cls-36{fill:url(#linear-gradient-22);}.cls-37{fill:url(#linear-gradient-23);}.cls-38{fill:url(#linear-gradient-24);}.cls-39{fill:url(#linear-gradient-25);}</style>
        <linearGradient id="linear-gradient" x1="148.86" y1="43.36" x2="889.94" y2="547.41" gradientUnits="userSpaceOnUse">
            <stop offset="0" stop-color="#ffe7dd" />
            <stop offset="1" stop-color="#ffccaf" />
        </linearGradient>
        <linearGradient id="linear-gradient-2" x1="325.58" y1="282.92" x2="325.58" y2="137.41" gradientUnits="userSpaceOnUse">
            <stop offset="0" stop-color="#ffe7dd" stop-opacity="0" />
            <stop offset="1" stop-color="#ff7b8b" />
        </linearGradient>
        <linearGradient id="linear-gradient-3" x1="574.57" y1="318.48" x2="574.57" y2="257.37" gradientUnits="userSpaceOnUse">
            <stop offset="0" stop-color="#ffe7dd" stop-opacity="0" />
            <stop offset="1" stop-color="#ffc0a2" />
        </linearGradient>
        <clipPath id="clip-path" transform="translate(143.58 44.83)">
            <circle class="cls-1" cx="569.34" cy="176.92" r="70.66" transform="translate(270.83 693) rotate(-77.22)" />
        </clipPath>
        <clipPath id="clip-path-2" transform="translate(143.58 44.83)">
            <rect class="cls-1" width="750" height="500" />
        </clipPath>
        <linearGradient id="linear-gradient-4" x1="7.61" y1="373.66" x2="423.11" y2="373.66" gradientUnits="userSpaceOnUse">
            <stop offset="0" stop-color="#ffc431" />
            <stop offset="1" stop-color="#ff8300" />
        </linearGradient>
        <linearGradient id="linear-gradient-5" x1="100.5" y1="257.35" x2="779.15" y2="257.35" gradientUnits="userSpaceOnUse">
            <stop offset="0" stop-color="#0df" />
            <stop offset="0.26" stop-color="#38a6ff" />
            <stop offset="0.87" stop-color="#c31eff" />
            <stop offset="1" stop-color="#e100ff" />
        </linearGradient>
        <linearGradient id="linear-gradient-6" x1="-82.39" y1="239.34" x2="784.7" y2="239.34" gradientUnits="userSpaceOnUse">
            <stop offset="0" stop-color="#ff008b" />
            <stop offset="0.12" stop-color="#ff0986" />
            <stop offset="0.32" stop-color="#ff207a" />
            <stop offset="0.56" stop-color="#ff4665" />
            <stop offset="0.84" stop-color="#ff7a48" />
            <stop offset="1" stop-color="#ff9b36" />
        </linearGradient>
        <linearGradient id="linear-gradient-7" x1="417.09" y1="365.01" x2="417.09" y2="45.08" gradientUnits="userSpaceOnUse">
            <stop offset="0" stop-color="#a42f7f" />
            <stop offset="0.18" stop-color="#ad3578" />
            <stop offset="0.47" stop-color="#c44466" />
            <stop offset="0.82" stop-color="#e95c47" />
            <stop offset="1" stop-color="#ff6a36" />
        </linearGradient>
        <linearGradient id="linear-gradient-8" x1="-62.63" y1="242.47" x2="876.48" y2="242.47" gradientUnits="userSpaceOnUse">
            <stop offset="0" stop-color="#00ecff" />
            <stop offset="0.05" stop-color="#03def9" />
            <stop offset="0.14" stop-color="#0ab9e8" />
            <stop offset="0.27" stop-color="#167dcd" />
            <stop offset="0.42" stop-color="#262ca9" />
            <stop offset="0.5" stop-color="#2e0095" />
            <stop offset="0.55" stop-color="#360099" />
            <stop offset="0.62" stop-color="#4c00a4" />
            <stop offset="0.72" stop-color="#6f00b6" />
            <stop offset="0.83" stop-color="#a100cf" />
            <stop offset="0.94" stop-color="#df00ef" />
            <stop offset="1" stop-color="#f0f" />
        </linearGradient>
        <linearGradient id="linear-gradient-9" x1="-25.05" y1="295.27" x2="864.37" y2="295.27" gradientUnits="userSpaceOnUse">
            <stop offset="0" stop-color="#00ecff" />
            <stop offset="0.05" stop-color="#03def9" />
            <stop offset="0.14" stop-color="#0ab9e8" />
            <stop offset="0.27" stop-color="#167dcd" />
            <stop offset="0.42" stop-color="#262ca9" />
            <stop offset="0.5" stop-color="#2e0095" />
            <stop offset="0.55" stop-color="#360097" />
            <stop offset="0.62" stop-color="#4c019b" />
            <stop offset="0.72" stop-color="#6f02a2" />
            <stop offset="0.83" stop-color="#a103ac" />
            <stop offset="0.94" stop-color="#df05b9" />
            <stop offset="1" stop-color="#ff06bf" />
        </linearGradient>
        <clipPath id="clip-path-3" transform="translate(143.58 44.83)">
            <circle class="cls-1" cx="203.34" cy="372.92" r="70.66" transform="translate(-206.34 485.05) rotate(-76.7)" />
        </clipPath>
        <linearGradient id="linear-gradient-10" x1="768.41" y1="397.76" x2="768.41" y2="306.32" xlink:href="#linear-gradient-3" />
        <linearGradient id="linear-gradient-11" x1="240.44" y1="438.19" x2="240.44" y2="329.12" gradientUnits="userSpaceOnUse">
            <stop offset="0" stop-color="#ffe7dd" stop-opacity="0" />
            <stop offset="0.07" stop-color="#ffe2d6" stop-opacity="0.12" />
            <stop offset="0.21" stop-color="#ffd9c9" stop-opacity="0.35" />
            <stop offset="0.36" stop-color="#ffd2bd" stop-opacity="0.55" />
            <stop offset="0.5" stop-color="#ffcbb3" stop-opacity="0.71" />
            <stop offset="0.64" stop-color="#ffc6ac" stop-opacity="0.84" />
            <stop offset="0.77" stop-color="#ffc3a6" stop-opacity="0.93" />
            <stop offset="0.89" stop-color="#ffc1a3" stop-opacity="0.98" />
            <stop offset="1" stop-color="#ffc0a2" />
        </linearGradient>
        <linearGradient id="linear-gradient-12" x1="378.43" y1="361.71" x2="378.43" y2="303.32" xlink:href="#linear-gradient-11" />
        <linearGradient id="linear-gradient-13" x1="834.41" y1="211.72" x2="834.41" y2="153.33" gradientUnits="userSpaceOnUse">
            <stop offset="0" stop-color="#ffe7dd" stop-opacity="0" />
            <stop offset="0.07" stop-color="#ffeadb" stop-opacity="0.12" />
            <stop offset="0.21" stop-color="#ffefd8" stop-opacity="0.35" />
            <stop offset="0.36" stop-color="#fff4d5" stop-opacity="0.55" />
            <stop offset="0.5" stop-color="#fff8d2" stop-opacity="0.71" />
            <stop offset="0.64" stop-color="#fffbd0" stop-opacity="0.84" />
            <stop offset="0.77" stop-color="#fffdcf" stop-opacity="0.93" />
            <stop offset="0.89" stop-color="#ffffce" stop-opacity="0.98" />
            <stop offset="1" stop-color="#ffffce" />
        </linearGradient>
        <clipPath id="clip-path-4" transform="translate(143.58 44.83)">
            <circle class="cls-1" cx="759.36" cy="191.93" r="56.03" transform="translate(394.08 884.77) rotate(-76.39)" />
        </clipPath>
        <clipPath id="clip-path-5" transform="translate(143.58 44.83)">
            <circle class="cls-1" cx="-2.64" cy="353.93" r="76.64" transform="translate(-347.98 276.42) rotate(-77.78)" />
        </clipPath>
        <linearGradient id="linear-gradient-14" x1="88.07" y1="126.03" x2="76.07" y2="184.52" gradientTransform="translate(67.19 -19.52) rotate(22.87)" xlink:href="#linear-gradient-4" />
        <linearGradient id="linear-gradient-15" x1="584.55" y1="271.52" x2="572.55" y2="330.02" gradientTransform="translate(738.01 -330.68) rotate(76.61)" xlink:href="#linear-gradient-4" />
        <linearGradient id="linear-gradient-16" x1="684.16" y1="345.86" x2="681.76" y2="357.56" xlink:href="#linear-gradient-4" />
        <linearGradient id="linear-gradient-17" x1="449.65" y1="288.09" x2="441.01" y2="330.21" xlink:href="#linear-gradient-4" />
        <linearGradient id="linear-gradient-18" x1="415.67" y1="267.22" x2="411.83" y2="285.94" xlink:href="#linear-gradient-4" />
        <linearGradient id="linear-gradient-19" x1="309.31" y1="357.76" x2="297.31" y2="416.26" gradientTransform="translate(614.17 6.37) rotate(77.17)" gradientUnits="userSpaceOnUse">
            <stop offset="0" stop-color="#ff2f7f" />
            <stop offset="0.16" stop-color="#ff3879" />
            <stop offset="0.41" stop-color="#ff4f6a" />
            <stop offset="0.72" stop-color="#ff7450" />
            <stop offset="1" stop-color="#ff9b36" />
        </linearGradient>
        <linearGradient id="linear-gradient-20" x1="722.88" y1="111.61" x2="710.88" y2="170.11" gradientUnits="userSpaceOnUse">
            <stop offset="0" stop-color="#68c5ff" />
            <stop offset="1" stop-color="#3239ff" />
        </linearGradient>
        <linearGradient id="linear-gradient-21" x1="844.13" y1="283.59" x2="835.49" y2="325.71" gradientUnits="userSpaceOnUse">
            <stop offset="0" stop-color="#ff9b36" />
            <stop offset="0.16" stop-color="#ff7a48" />
            <stop offset="0.44" stop-color="#ff4665" />
            <stop offset="0.68" stop-color="#ff207a" />
            <stop offset="0.88" stop-color="#ff0986" />
            <stop offset="1" stop-color="#ff008b" />
        </linearGradient>
        <linearGradient id="linear-gradient-22" x1="805.65" y1="331.72" x2="801.81" y2="350.44" xlink:href="#linear-gradient-21" />
        <linearGradient id="linear-gradient-23" x1="571.57" y1="36.05" x2="565.81" y2="64.13" gradientTransform="translate(202.31 -387.23) rotate(45)" xlink:href="#linear-gradient-20" />
        <linearGradient id="linear-gradient-24" x1="356.58" y1="365.46" x2="351.78" y2="388.86" gradientTransform="translate(170.54 -106.42) rotate(22.39)" xlink:href="#linear-gradient-19" />
        <linearGradient id="linear-gradient-25" x1="256.92" y1="161.01" x2="252.61" y2="182.07" xlink:href="#linear-gradient-4" />
    </defs>
    <g class="cls-2">
        <g id="BACKGROUND">
            <rect class="cls-3" x="143.58" y="44.83" width="750" height="500" />
            <circle class="cls-4" cx="325.58" cy="223.83" r="68" />
            <circle class="cls-5" cx="574.57" cy="282.33" r="41.6" />
            <g class="cls-6">
                <g class="cls-7">
                    <rect class="cls-8" x="560.16" y="-94.04" width="2.78" height="342.73" transform="translate(362.72 -329.59) rotate(45)" />
                    <rect class="cls-8" x="560.16" y="-80.69" width="2.78" height="342.73" transform="translate(372.16 -325.68) rotate(45)" />
                    <rect class="cls-8" x="560.16" y="-67.33" width="2.78" height="342.73" transform="translate(381.62 -321.77) rotate(45)" />
                    <rect class="cls-8" x="560.16" y="-53.98" width="2.78" height="342.73" transform="translate(391.06 -317.86) rotate(45)" />
                    <rect class="cls-8" x="560.16" y="-40.63" width="2.78" height="342.73" transform="translate(400.5 -313.95) rotate(45)" />
                    <rect class="cls-8" x="560.16" y="-27.27" width="2.78" height="342.73" transform="translate(409.93 -310.03) rotate(45)" />
                    <rect class="cls-8" x="560.16" y="-13.92" width="2.78" height="342.73" transform="translate(419.37 -306.12) rotate(45)" />
                    <rect class="cls-8" x="560.16" y="-0.57" width="2.78" height="342.73" transform="translate(428.8 -302.2) rotate(45)" />
                    <rect class="cls-8" x="560.16" y="12.79" width="2.78" height="342.73" transform="translate(438.24 -298.29) rotate(45)" />
                    <rect class="cls-8" x="560.16" y="26.14" width="2.78" height="342.73" transform="translate(447.7 -294.39) rotate(45)" />
                    <rect class="cls-8" x="560.16" y="39.49" width="2.78" height="342.73" transform="translate(457.14 -290.48) rotate(45)" />
                    <rect class="cls-8" x="560.16" y="52.84" width="2.78" height="342.73" transform="translate(466.6 -286.57) rotate(45)" />
                    <rect class="cls-8" x="560.16" y="66.2" width="2.78" height="342.73" transform="translate(476.04 -282.66) rotate(45)" />
                    <rect class="cls-8" x="560.16" y="79.55" width="2.78" height="342.73" transform="translate(485.45 -278.74) rotate(45)" />
                    <rect class="cls-8" x="560.16" y="92.9" width="2.78" height="342.73" transform="translate(494.89 -274.83) rotate(45)" />
                    <rect class="cls-8" x="560.16" y="106.26" width="2.78" height="342.73" transform="translate(504.35 -270.93) rotate(45)" />
                    <rect class="cls-8" x="560.16" y="119.61" width="2.78" height="342.73" transform="translate(513.78 -267.01) rotate(45)" />
                </g>
            </g>
            <g class="cls-9">
                <path class="cls-10" d="M7.61,443.58s93,19.5,169.49-37.5,127.49-66,223.49-40.5-139.49-105-244.49-52.49S7.61,443.58,7.61,443.58Z" transform="translate(143.58 44.83)" />
                <path class="cls-11" d="M-19.39,181.09s91.5-72,193.49-9,210,100.5,270,69,64.49-34.5,145.49-46.5,76.5-105,145.49-129,66-4.5,66-4.5L804,335s-44-73-104-34-80.42,19.59-122.42,18.09-97.49,49.49-145.49,70.49-126-61.49-196.49-39S75.11,460.08-8.89,425.58s-48-157.49-48-157.49Z" transform="translate(143.58 44.83)" />
                <path class="cls-12" d="M100.5,404.88c2.41.57,36.63-32.33,64-41.69,39.8-13.6,84.88-42.55,126.52-21.59,18.33,9.22,29.41,9.26,49,9.6,17.65.32,29,11.08,43.55,19.82,34.07,20.51,68.82,27.2,106.79,18.8,32.68-7.24,50-34.49,66.25-62.41,8-13.67,16.66-29.29,30.82-37.31,13.35-7.56,26.7-3.55,41.25-3.82,28.7-.53,46.79-18.44,71.07-30.65,24.09-12.12,53.59-16.34,79.37-7.06-3.49-19.37-7.26-38.9-9.75-58.42-3-23.44,6.21-45.08,7.76-68.39-20.55-7.75-43.49-11.37-65.35-11.91-47.45-1.16-66.44,26.4-88.35,64.08-17.23,29.63-39.57,54.52-68.4,74.17-26.38,18-59.73,38.22-90,46.68-21.32,6-44.33,6.77-66,.25-23.13-6.95-46-15.56-69.12-22.83-28.78-9-51.53-29.67-79.44-40.41-29.64-11.4-51.45-.88-71,21.35C142.83,294.65,100.5,404.88,100.5,404.88Z" transform="translate(143.58 44.83)" />
                <path class="cls-13" d="M-8.89,445.08c20.63,1.47,43.68,6.91,63.56,1.5A170.78,170.78,0,0,0,108,422.07c18.56-13,30.38-33.91,48.06-46,41.13-28.14,100.49-110.6,157.61-58.67,9.59,8.72,20.89,23,33.25,27.81,11,4.25,23.75.31,35.17.3,16.39,0,30.71,2.06,46.71-3.08,22.77-7.32,41.82-23.07,58.65-38.88,18.83-17.68,28.89-36,55.82-40,19.65-3,25.42-17.48,34-34.55,8.95-17.92,20-34.66,28.53-52.75,11-23.48,17-56.05,40.18-71,36-23.37,134.49-9.13,134.52,46,6.95-25.14,6.44-35.24-9.69-54.76-13.32-16.13-17-27.86-19.18-48.84-50-20.93-118.85-32.12-156.67,16.75A102.92,102.92,0,0,0,573,124.92c-.85,21.94,6.71,51.16-2.24,71.86-3.63,8.39-12.61,14.57-18.13,21.75-9,11.74-15.17,16.55-29.39,22-15,5.77-31.07,9.17-47,5.16-8.09-2.05-13.31-5-21.94-4.21-8,.76-15.22,4.77-23.45,3.87C398.67,241.83,385.17,204,366,183c-21.09-23.15-72.28-36.85-102-34-73.95,7.1-95.19,63-123.64,122.62C122.75,308.52,66,371.81,19.19,362.29c-54.55-11.1-91.92,6-101.58,58.79C-55.42,425.81-35.86,440.35-8.89,445.08Z" transform="translate(143.58 44.83)" />
                <path class="cls-14" d="M669.08,70.1c-87,3-73.5,87-87,121.49s-3,52.5-51,55.5-42,30-66,46.5c-81,37.5-69-6-193.49-36s-219,162-219,162l5.52,26A169.75,169.75,0,0,0,108,422.07c18.56-13,30.38-33.91,48.06-46,41.13-28.14,100.49-110.6,157.61-58.67,9.59,8.72,20.89,23,33.25,27.81,11,4.25,23.75.31,35.17.3,16.39,0,30.71,2.06,46.71-3.08,22.77-7.32,41.82-23.07,58.65-38.88,18.83-17.68,28.89-36,55.82-40,19.65-3,25.42-17.48,34-34.55,8.95-17.92,20-34.66,28.53-52.75,11-23.48,17-56.05,40.18-71,31.93-20.71,112.82-11.89,130.89,28.74l4.75-11.31S756.07,67.1,669.08,70.1Z" transform="translate(143.58 44.83)" />
                <path class="cls-15" d="M-23.73,244.1c19.58-17.59,42.94-31.6,67.18-41.67,50.8-21.1,101.41-13.78,149.38,6.74,32.59,13.94,49.6,45,77.09,67.5C287.38,291,309,300.05,331,304.74c51.74,11.06,87.33-14,124.11-47.84,25.49-23.45,54.91-45.63,90.67-35.45,28.35,8.08,54.52,9.52,83.4,1.29,51.93-14.82,64.38-73.21,90.36-114.15C730,92.21,736.23,77,752.16,64.79,774.05,48,800.79,39.53,827.8,35.51c1.82,11.19,2.35,28.16,8.7,38.09,5.56,8.69,17.37,14.65,25.18,21,21.65,17.57,17,28.19,2.38,48-15.67,21.29-14,29.82-9.88,54.86l9.06,55.64c-41.45-26.67-104-59.91-153-43.48-42.47,14.27-84.91,56.15-132.73,49.48-13-1.82-22.59-12.74-35.59-13.86-24.47-2.1-40.21,30.17-54.85,42.18-25.06,20.56-60.27,48-95.48,54.28-30.39,5.39-51.89-12.36-77.27-25.11-63.13-31.7-179.07,4.4-205.88,70.29C77.8,462.3-.19,462.19-62.63,425.19Z" transform="translate(143.58 44.83)" />
                <path class="cls-16" d="M487.1,287.45c14.64-12,30.38-44.28,54.85-42.18,13,1.12,22.57,12,35.59,13.86,47.82,6.67,90.26-35.21,132.73-49.48,49-16.43,111.52,16.81,153,43.48q-4.44-27.3-8.89-54.58c-4-24.56-6.42-35,10-56.31C782.29,129.33,716.72,182,655.06,223.79c-35.06,23.78-70.72,10.44-111.13,10.77-62.43.51-83.19,78.8-138.54,98.7-34.09,12.26-63-7.11-92-22.56-46.61-24.77-98.2-43.83-150.7-48.31C60.91,253.71.91,359.31-25,442.36c58,19.75,109.59,3,133.52-55.45,27-66,142.75-102,205.88-70.29,25.38,12.75,46.88,30.5,77.27,25.11C426.83,335.49,462,308,487.1,287.45Z" transform="translate(143.58 44.83)" />
                <g class="cls-6">
                    <g class="cls-17">
                        <rect class="cls-8" x="194.16" y="101.96" width="2.78" height="342.73" transform="translate(394.12 -13.39) rotate(45)" />
                        <rect class="cls-8" x="194.16" y="115.31" width="2.78" height="342.73" transform="translate(403.56 -9.48) rotate(45)" />
                        <rect class="cls-8" x="194.16" y="128.67" width="2.78" height="342.73" transform="translate(413.01 -5.57) rotate(45)" />
                        <rect class="cls-8" x="194.16" y="142.02" width="2.78" height="342.73" transform="translate(422.45 -1.65) rotate(45)" />
                        <rect class="cls-8" x="194.16" y="155.37" width="2.78" height="342.73" transform="translate(431.9 2.26) rotate(45)" />
                        <rect class="cls-8" x="194.16" y="168.73" width="2.78" height="342.73" transform="translate(441.33 6.16) rotate(45)" />
                        <rect class="cls-8" x="194.16" y="182.08" width="2.78" height="342.73" transform="translate(450.77 10.08) rotate(45)" />
                        <rect class="cls-8" x="194.16" y="195.43" width="2.78" height="342.73" transform="translate(460.2 13.98) rotate(45)" />
                        <rect class="cls-8" x="194.16" y="208.79" width="2.78" height="342.73" transform="translate(469.64 17.89) rotate(45)" />
                        <rect class="cls-8" x="194.16" y="222.14" width="2.78" height="342.73" transform="translate(479.1 21.81) rotate(45)" />
                        <rect class="cls-8" x="194.16" y="235.49" width="2.78" height="342.73" transform="translate(488.54 25.72) rotate(45)" />
                        <rect class="cls-8" x="194.16" y="248.84" width="2.78" height="342.73" transform="translate(497.99 29.63) rotate(45)" />
                        <rect class="cls-8" x="194.16" y="262.2" width="2.78" height="342.73" transform="translate(507.43 33.54) rotate(45)" />
                        <rect class="cls-8" x="194.16" y="275.55" width="2.78" height="342.73" transform="translate(516.85 37.45) rotate(45)" />
                        <rect class="cls-8" x="194.16" y="288.9" width="2.78" height="342.73" transform="translate(526.29 41.36) rotate(45)" />
                        <rect class="cls-8" x="194.16" y="302.26" width="2.78" height="342.73" transform="translate(535.75 45.27) rotate(45)" />
                        <rect class="cls-8" x="194.16" y="315.61" width="2.78" height="342.73" transform="translate(545.18 49.18) rotate(45)" />
                    </g>
                </g>
                <circle class="cls-18" cx="768.41" cy="343.67" r="62.25" />
                <circle class="cls-19" cx="240.44" cy="373.67" r="74.25" />
                <circle class="cls-20" cx="378.43" cy="327.17" r="39.75" />
                <circle class="cls-21" cx="834.41" cy="177.18" r="39.75" />
                <path class="cls-22" d="M102.16,258.83a1.84,1.84,0,1,1,1.84,1.83A1.84,1.84,0,0,1,102.16,258.83Z" transform="translate(143.58 44.83)" />
                <path class="cls-22" d="M86.53,258.83a1.83,1.83,0,1,1,1.83,1.83A1.82,1.82,0,0,1,86.53,258.83Z" transform="translate(143.58 44.83)" />
                <path class="cls-22" d="M102.16,247.13A1.84,1.84,0,1,1,104,249,1.84,1.84,0,0,1,102.16,247.13Z" transform="translate(143.58 44.83)" />
                <path class="cls-22" d="M86.53,247.13A1.83,1.83,0,1,1,88.36,249,1.82,1.82,0,0,1,86.53,247.13Z" transform="translate(143.58 44.83)" />
                <path class="cls-22" d="M102.16,234.87A1.84,1.84,0,1,1,104,236.7,1.84,1.84,0,0,1,102.16,234.87Z" transform="translate(143.58 44.83)" />
                <path class="cls-22" d="M86.53,234.87a1.83,1.83,0,1,1,1.83,1.83A1.82,1.82,0,0,1,86.53,234.87Z" transform="translate(143.58 44.83)" />
                <path class="cls-22" d="M72.15,258.83A1.83,1.83,0,1,1,74,260.66,1.83,1.83,0,0,1,72.15,258.83Z" transform="translate(143.58 44.83)" />
                <path class="cls-22" d="M56.51,258.83a1.84,1.84,0,1,1,1.83,1.83A1.83,1.83,0,0,1,56.51,258.83Z" transform="translate(143.58 44.83)" />
                <path class="cls-22" d="M72.15,247.13A1.83,1.83,0,1,1,74,249,1.83,1.83,0,0,1,72.15,247.13Z" transform="translate(143.58 44.83)" />
                <path class="cls-22" d="M56.51,247.13A1.84,1.84,0,1,1,58.34,249,1.83,1.83,0,0,1,56.51,247.13Z" transform="translate(143.58 44.83)" />
                <path class="cls-22" d="M72.15,234.87A1.83,1.83,0,1,1,74,236.7,1.83,1.83,0,0,1,72.15,234.87Z" transform="translate(143.58 44.83)" />
                <path class="cls-22" d="M56.51,234.87a1.84,1.84,0,1,1,1.83,1.83A1.83,1.83,0,0,1,56.51,234.87Z" transform="translate(143.58 44.83)" />
                <circle class="cls-22" cx="561.71" cy="407.83" r="2.38" />
                <circle class="cls-22" cx="574.83" cy="407.83" r="2.38" />
                <circle class="cls-22" cx="587.96" cy="407.83" r="2.38" />
                <g class="cls-23">
                    <g class="cls-24">
                        <rect class="cls-22" x="752.08" y="-22.95" width="2.21" height="271.79" transform="translate(444.03 -454.65) rotate(45)" />
                        <rect class="cls-22" x="752.08" y="-12.36" width="2.21" height="271.79" transform="translate(451.52 -451.55) rotate(45)" />
                        <rect class="cls-22" x="752.08" y="-1.77" width="2.21" height="271.79" transform="translate(459.03 -448.46) rotate(45)" />
                        <rect class="cls-22" x="752.08" y="8.82" width="2.21" height="271.79" transform="translate(466.51 -445.36) rotate(45)" />
                        <rect class="cls-22" x="752.08" y="19.41" width="2.21" height="271.79" transform="translate(474 -442.26) rotate(45)" />
                        <rect class="cls-22" x="752.08" y="30" width="2.21" height="271.79" transform="translate(481.47 -439.15) rotate(45)" />
                        <rect class="cls-22" x="752.08" y="40.59" width="2.21" height="271.79" transform="translate(488.96 -436.05) rotate(45)" />
                        <rect class="cls-22" x="752.08" y="51.18" width="2.21" height="271.79" transform="translate(496.44 -432.94) rotate(45)" />
                        <rect class="cls-22" x="752.08" y="61.77" width="2.21" height="271.79" transform="translate(503.93 -429.84) rotate(45)" />
                        <rect class="cls-22" x="752.08" y="72.36" width="2.21" height="271.79" transform="translate(511.42 -426.74) rotate(45)" />
                        <rect class="cls-22" x="752.08" y="82.95" width="2.21" height="271.79" transform="translate(518.91 -423.64) rotate(45)" />
                        <rect class="cls-22" x="752.08" y="93.53" width="2.21" height="271.79" transform="translate(526.42 -420.55) rotate(45)" />
                        <rect class="cls-22" x="752.08" y="104.12" width="2.21" height="271.79" transform="translate(533.9 -417.45) rotate(45)" />
                        <rect class="cls-22" x="752.08" y="114.71" width="2.21" height="271.79" transform="translate(541.37 -414.34) rotate(45)" />
                        <rect class="cls-22" x="752.08" y="125.3" width="2.21" height="271.79" transform="translate(548.86 -411.24) rotate(45)" />
                        <rect class="cls-22" x="752.08" y="135.89" width="2.21" height="271.79" transform="translate(556.34 -408.13) rotate(45)" />
                        <rect class="cls-22" x="752.08" y="146.48" width="2.21" height="271.79" transform="translate(563.83 -405.03) rotate(45)" />
                    </g>
                </g>
                <g class="cls-23">
                    <g class="cls-25">
                        <rect class="cls-22" x="-12.6" y="60.04" width="3.02" height="371.73" transform="translate(314.21 124.69) rotate(45)" />
                        <rect class="cls-22" x="-12.6" y="74.52" width="3.02" height="371.73" transform="translate(324.46 128.94) rotate(45)" />
                        <rect class="cls-22" x="-12.6" y="89.01" width="3.02" height="371.73" transform="translate(334.7 133.19) rotate(45)" />
                        <rect class="cls-22" x="-12.6" y="103.49" width="3.02" height="371.73" transform="translate(344.94 137.42) rotate(45)" />
                        <rect class="cls-22" x="-12.6" y="117.97" width="3.02" height="371.73" transform="translate(355.18 141.66) rotate(45)" />
                        <rect class="cls-22" x="-12.6" y="132.46" width="3.02" height="371.73" transform="translate(365.42 145.9) rotate(45)" />
                        <rect class="cls-22" x="-12.6" y="146.94" width="3.02" height="371.73" transform="translate(375.66 150.14) rotate(45)" />
                        <rect class="cls-22" x="-12.6" y="161.42" width="3.02" height="371.73" transform="translate(385.9 154.38) rotate(45)" />
                        <rect class="cls-22" x="-12.6" y="175.9" width="3.02" height="371.73" transform="translate(396.14 158.63) rotate(45)" />
                        <rect class="cls-22" x="-12.6" y="190.39" width="3.02" height="371.73" transform="translate(406.38 162.87) rotate(45)" />
                        <rect class="cls-22" x="-12.6" y="204.87" width="3.02" height="371.73" transform="translate(416.62 167.11) rotate(45)" />
                        <rect class="cls-22" x="-12.6" y="219.35" width="3.02" height="371.73" transform="translate(426.88 171.37) rotate(45)" />
                        <rect class="cls-22" x="-12.6" y="233.84" width="3.02" height="371.73" transform="translate(437.12 175.61) rotate(45)" />
                        <rect class="cls-22" x="-12.6" y="248.32" width="3.02" height="371.73" transform="translate(447.34 179.84) rotate(45)" />
                        <rect class="cls-22" x="-12.6" y="262.8" width="3.02" height="371.73" transform="translate(457.58 184.08) rotate(45)" />
                        <rect class="cls-22" x="-12.6" y="277.29" width="3.02" height="371.73" transform="translate(467.83 188.32) rotate(45)" />
                        <rect class="cls-22" x="-12.6" y="291.77" width="3.02" height="371.73" transform="translate(478.07 192.56) rotate(45)" />
                    </g>
                </g>
                <path class="cls-26" d="M366.89,176.7H306.26a10.11,10.11,0,0,1-10.11-10.11h0a10.11,10.11,0,0,1,10.11-10.1h60.63A10.1,10.1,0,0,1,377,166.59h0A10.1,10.1,0,0,1,366.89,176.7Z" transform="translate(143.58 44.83)" />
                <path class="cls-27" d="M572.39,353.2H532.76a6.61,6.61,0,0,1-6.61-6.61h0a6.61,6.61,0,0,1,6.61-6.6h39.63a6.61,6.61,0,0,1,6.61,6.6h0A6.61,6.61,0,0,1,572.39,353.2Z" transform="translate(143.58 44.83)" />
                <circle class="cls-28" cx="81.86" cy="156.35" r="18.75" transform="translate(89.26 88.93) rotate(-22.87)" />
                <circle class="cls-29" cx="578.33" cy="301.84" r="18.75" transform="translate(294.33 839.37) rotate(-76.61)" />
                <circle class="cls-30" cx="682.91" cy="351.92" r="3.75" />
                <circle class="cls-31" cx="445.18" cy="309.92" r="13.5" />
                <circle class="cls-32" cx="413.68" cy="276.92" r="6" />
                <circle class="cls-33" cx="303.09" cy="388.08" r="18.75" transform="translate(0.97 642.25) rotate(-77.17)" />
                <circle class="cls-34" cx="716.66" cy="141.93" r="18.75" />
                <circle class="cls-35" cx="839.66" cy="305.42" r="13.5" />
                <circle class="cls-36" cx="803.66" cy="341.42" r="6" />
                <circle class="cls-37" cx="568.58" cy="50.6" r="9" transform="translate(274.34 461.7) rotate(-45)" />
                <circle class="cls-38" cx="354.09" cy="377.58" r="7.5" transform="translate(26.44 208.19) rotate(-22.39)" />
                <circle class="cls-39" cx="254.69" cy="171.93" r="6.75" />
            </g>
        </g>
    </g>
</svg>