<svg xmlns="http://www.w3.org/2000/svg" xmlns:xlink="http://www.w3.org/1999/xlink" viewBox="0 0 512 512"><defs><style>.cls-1{fill:#e8b387;}.cls-2{fill:#f6f0f0;}.cls-3{clip-path:url(#clip-path);}.cls-4{fill:#322924;}.cls-5{fill:#a4a86c;}.cls-6{fill:#fff;}.cls-7{fill:#cc7b62;}.cls-8{fill:#735141;}.cls-9{clip-path:url(#clip-path-2);}.cls-10{fill:#94361f;}</style><clipPath id="clip-path"><circle class="cls-1" cx="256" cy="256" r="256"/></clipPath><clipPath id="clip-path-2"><path class="cls-2" d="M179.9,168.38c3.84.6,43.36-13.09,72.76-11,61.46-6,88.78,6.7,96.33,7.76a42.35,42.35,0,0,0-5.23-9.1,62.17,62.17,0,0,0-12.54-12.42,94.88,94.88,0,0,0-23.79-12.82h-.05a8.21,8.21,0,0,0-1.18-.46c-16.67-6.18-33.48-8.3-50.25-8.5-16.76.26-33.57,2.45-50.24,8.7a8.32,8.32,0,0,0-1.19.46,100.77,100.77,0,0,0-23.79,12.89c-4.13,3.25-9.77,10.94-13.9,16.58Z"/></clipPath></defs><g id="_5" data-name="5"><circle class="cls-1" cx="256" cy="256" r="256"/><g class="cls-3"><ellipse class="cls-4" cx="189.35" cy="294.96" rx="64.82" ry="80.42"/><ellipse class="cls-4" cx="322.78" cy="292.53" rx="64.82" ry="80.42"/><ellipse class="cls-4" cx="148.71" cy="306.43" rx="44.89" ry="48.68"/><path class="cls-4" d="M182.55,343.65c3.5,5.43-2.51,15.55-13.43,22.59s-22.62,8.35-26.12,2.92,2.51-15.55,13.43-22.59S179,338.22,182.55,343.65Z"/><path class="cls-4" d="M377.6,366c-2.62,5.9-14.38,6.41-26.25,1.13S332,352.75,334.61,346.84s14.38-6.41,26.25-1.13S380.23,360.06,377.6,366Z"/><ellipse class="cls-4" cx="350.27" cy="317.78" rx="33.07" ry="60.44" transform="translate(-73.41 527.95) rotate(-68.6)"/><path class="cls-2" d="M380.57,359.78a43.13,43.13,0,0,1-8.74,25.5c-.19.34-.48.62-.71,1a47.74,47.74,0,0,1-12.78,11.54,46.27,46.27,0,0,1-18.09,6.65c-11.35,1.62-22.75,2.95-34.2,3.85a575.64,575.64,0,0,1-98.25,0q-16.89-1.42-33.72-3.85a47.34,47.34,0,0,1-24.27-11.16c-1.19-1.09-2.28-2.13-3.18-3.08a42.29,42.29,0,0,1-3.95-4.61c-6.36-8.55-9.78-19-8.78-29.3a12.87,12.87,0,0,1,8.64-11.21,15.13,15.13,0,0,1,5.13-.85,19,19,0,0,1,3.23.33,558.57,558.57,0,0,0,211.43.19c.38-.05.71-.14,1.09-.19,8.69-1.66,16.24,3.46,17,11.73C380.52,357.45,380.57,358.64,380.57,359.78Z"/><ellipse class="cls-4" cx="351.99" cy="257.74" rx="48.68" ry="44.89" transform="translate(-84.09 270.47) rotate(-37.88)"/><path class="cls-4" d="M92,271.16c-2.48,19.6,17.89,38.32,45.5,41.81s52-9.57,54.48-29.17-17.89-38.31-45.5-41.8S94.44,251.57,92,271.16Z"/><path class="cls-5" d="M462.11,804.06a46.34,46.34,0,0,1-4.94,19.85A46.92,46.92,0,0,1,444.25,839a4.69,4.69,0,0,0-.05.81l-.8-.14c-31.59,23.6-96.79,10-176,10.64-95.6-.81-176.57,9-195.57-28.69a41.42,41.42,0,0,1-4.18-17.52,132.48,132.48,0,0,1,2.66-33.53c.24-1.28.52-2.61.85-3.89q2.85-11.91,5.09-23.8,3.34-18.24,5.36-36.47c.81-7.36,1.43-14.68,1.9-22a595.18,595.18,0,0,0,.86-63.59q-3.78-99.66-6.94-193.29c2.57-1.56,5.13-3.08,7.7-4.51q12.89-7.47,26.21-13.67A363.42,363.42,0,0,1,184.1,384a370.16,370.16,0,0,1,146.08-4.6A365.27,365.27,0,0,1,401,398.68c9.07,3.51,18,7.36,26.88,11.63a352.46,352.46,0,0,1,31.82,17.19q-3.7,110.78-8.32,229.91c-.47,12-.42,24,.05,36,.52,14.72,1.66,29.45,3.33,44.22v0c.09.95.19,1.86.33,2.81,1.52,12.91,3.32,25.92,5.51,38.89A114.07,114.07,0,0,1,462.11,804.06Z"/><path class="cls-4" d="M110.67,215.4c-1.44,11.41,16.41,23.07,39.87,26s43.66-3.88,45.1-15.29-16.41-23.07-39.87-26S112.11,204,110.67,215.4Z"/><path class="cls-6" d="M330.13,379.73l-75,89.09-70.91-84.2A345.33,345.33,0,0,1,330.13,379.73Z"/><path class="cls-7" d="M209,262.19V402.9c6.41,3,26,5.13,49,5.13s42.65-2.18,49.06-5.17V262.19Z"/><path class="cls-4" d="M258,332c-.85,1.33,33,5,49.06,6.65V303.46C296,309.73,259,330.48,258,332Z"/><ellipse class="cls-4" cx="366.84" cy="276.83" rx="42.82" ry="20.83"/><path class="cls-4" d="M105.63,239.7c-4,8.86,7.28,22.58,25.18,30.65s35.65,7.42,39.64-1.44-7.28-22.58-25.18-30.65S109.62,230.84,105.63,239.7Z"/><path class="cls-4" d="M347.22,193.28c-3.57,7.92,7.07,20.44,23.77,28s33.13,7.2,36.7-.72-7.07-20.44-23.77-28S350.79,185.35,347.22,193.28Z"/><path class="cls-4" d="M352,193.94c0,7.62,10.6,13.8,23.67,13.8s23.66-6.18,23.66-13.8-10.59-13.8-23.66-13.8S352,186.32,352,193.94Z"/><path class="cls-4" d="M134.91,193.1a13.81,13.81,0,1,0,13.8-13.8A13.8,13.8,0,0,0,134.91,193.1Z"/><path class="cls-7" d="M206,166.3h104a16.22,16.22,0,0,1,16.22,16.22V332a0,0,0,0,1,0,0H189.82a0,0,0,0,1,0,0V182.52A16.22,16.22,0,0,1,206,166.3Z" transform="translate(516.12 498.27) rotate(-180)"/><path class="cls-4" d="M336.06,241.13c-1,0-11.6,3.28-14.38-11.6-2.93-15.7-.21-26.86-14.58-31.55l31.48,6.07-2.52,10.49Z"/><path class="cls-7" d="M316.13,244.12c-5.1,7.91-4.06,17.67,2.33,21.79s15.71,1,20.82-6.86,4.06-17.67-2.34-21.79S321.23,236.21,316.13,244.12Z"/><path class="cls-7" d="M200,244.12c5.1,7.91,4.06,17.67-2.34,21.79s-15.71,1-20.81-6.86-4.06-17.67,2.33-21.79S194.88,236.21,200,244.12Z"/><ellipse class="cls-4" cx="345.74" cy="200.04" rx="15.85" ry="20.73"/><path class="cls-8" d="M345.73,221.82c-9.31,0-16.89-9.77-16.89-21.79s7.58-21.78,16.89-21.78S362.64,188,362.64,200,355.05,221.82,345.73,221.82Zm0-41.47c-8.16,0-14.79,8.83-14.79,19.68s6.63,19.69,14.79,19.69,14.8-8.83,14.8-19.69S353.89,180.35,345.73,180.35Z"/><path class="cls-4" d="M109.29,313.47c-10.52,9.74-14.22,22.85-8.27,29.27s19.3,3.73,29.82-6,14.22-22.85,8.27-29.27S119.81,303.72,109.29,313.47Z"/><path class="cls-4" d="M170.42,209.5c0,14.69,9,26.6,20.2,26.6s20.2-11.91,20.2-26.6-9-26.61-20.2-26.61S170.42,194.8,170.42,209.5Z"/><path class="cls-4" d="M281.67,164.25c-5,14.61,8.42,32.4,29.92,39.72s43,1.4,47.94-13.22-8.42-32.4-29.92-39.72S286.65,149.63,281.67,164.25Z"/><ellipse class="cls-4" cx="247.63" cy="160.44" rx="27.65" ry="21.01"/><path class="cls-4" d="M227.63,174.93s-17.47-2.4-16.81,28.89c.73,35.08-22.41,32.12-22.41,32.12l-39.7-38,13.81-24.91,28.1-12.63,24.47-8.56,20.49,8.56Z"/><path class="cls-4" d="M281.76,177.5s-4.89-16.86-31.23-19.34l24.75-9.41,24,9.41,7.83,8.14-8.38,11.2Z"/><path class="cls-2" d="M202.43,139.05a28.53,28.53,0,0,0,.52,5.31c14.58-3.7,33-5.93,53.05-5.93s38.47,2.23,53.05,5.93a28.53,28.53,0,0,0,.52-5.31c0-21.28-24-38.47-53.57-38.47S202.43,117.77,202.43,139.05Z"/><path class="cls-2" d="M179.9,168.38c3.84.6,43.36-13.09,72.76-11,61.46-6,88.78,6.7,96.33,7.76a42.35,42.35,0,0,0-5.23-9.1,62.17,62.17,0,0,0-12.54-12.42,94.88,94.88,0,0,0-23.79-12.82h-.05a8.21,8.21,0,0,0-1.18-.46c-16.67-6.18-33.48-8.3-50.25-8.5-16.76.26-33.57,2.45-50.24,8.7a8.32,8.32,0,0,0-1.19.46,100.77,100.77,0,0,0-23.79,12.89c-4.13,3.25-9.77,10.94-13.9,16.58Z"/><g class="cls-9"><path class="cls-8" d="M327.7,234.13a1,1,0,0,1-.62-.2,1.05,1.05,0,0,1-.23-1.47c10.08-13.86,12.13-41.91,4.87-66.69-7.19-24.53-21.77-42.18-41.05-49.71a1.05,1.05,0,1,1,.76-2c19.91,7.77,34.93,25.91,42.3,51.08,7.55,25.76,5.42,53.94-5.18,68.52A1,1,0,0,1,327.7,234.13Z"/><path class="cls-8" d="M299.24,239.68a1,1,0,0,1-.75-1.79c9.51-9.59,13.22-32.2,9.7-59-4.18-31.76-16.72-58-31.95-66.91a1,1,0,1,1,1.06-1.81c19.17,11.18,29.74,43.86,33,68.44,3.6,27.43-.34,50.71-10.3,60.75A1,1,0,0,1,299.24,239.68Z"/><path class="cls-8" d="M273,242.08a1,1,0,0,1-.47-.11,1,1,0,0,1-.47-1.41c8.28-16.5,16.2-89.42-14.83-131.53a1.05,1.05,0,0,1,1.69-1.25c31.53,42.78,23.44,116.94,15,133.72A1,1,0,0,1,273,242.08Z"/><path class="cls-8" d="M185.7,234.13a1.07,1.07,0,0,1-.86-.43c-10.6-14.58-12.72-42.76-5.18-68.52C187,140,202.06,121.87,222,114.1a1.05,1.05,0,0,1,1.36.59,1.07,1.07,0,0,1-.6,1.37c-19.29,7.53-33.86,25.18-41,49.71-7.26,24.78-5.21,52.83,4.87,66.69a1.06,1.06,0,0,1-.23,1.47A1,1,0,0,1,185.7,234.13Z"/><path class="cls-8" d="M214.16,239.68a1,1,0,0,1-.75-.31c-10-10-13.9-33.32-10.29-60.75,3.23-24.58,13.81-57.26,33-68.44a1,1,0,1,1,1.06,1.81c-15.23,8.89-27.78,35.15-31.95,66.9-3.53,26.8.19,49.41,9.69,59a1.06,1.06,0,0,1,0,1.49A1.08,1.08,0,0,1,214.16,239.68Z"/><path class="cls-8" d="M240.41,242.08a1,1,0,0,1-.94-.58c-8.42-16.78-16.51-90.94,15-133.72a1.06,1.06,0,0,1,1.7,1.25c-31,42.11-23.11,115-14.83,131.53a1,1,0,0,1-.47,1.41A1,1,0,0,1,240.41,242.08Z"/></g><path class="cls-4" d="M146.85,166.65c-5.06,7.85-.38,19.88,10.45,26.87S181,199.81,186.09,192s.38-19.88-10.45-26.87S151.91,158.8,146.85,166.65Z"/><ellipse class="cls-4" cx="357.2" cy="174.93" rx="27.32" ry="23.05"/><path class="cls-4" d="M368.26,222.88c-3.71,6.43,1.94,16.63,12.62,22.8s22.34,5.95,26.05-.48-1.94-16.63-12.62-22.8S372,216.45,368.26,222.88Z"/><path class="cls-5" d="M596.47,644.18C545.88,669,496.45,690.45,448.83,709c-11.31-76.17-45.3-150.4-98.18-215.87,34.65-19.54,71.84-86.24,109.05-65.62C508.37,454.48,570.27,565.78,596.47,644.18Z"/><path class="cls-5" d="M-12.92,669.55c50.59,24.77,70.14,26.82,117.76,45.38,11.31-76.17,18.35-150.41,71.23-215.87-34.65-19.54-61.44-92.17-98.65-71.55C28.75,454.48-12.92,538.49-12.92,669.55Z"/><path class="cls-4" d="M414.65,557.59a.62.62,0,0,1-.19,0,1,1,0,0,1-.84-1.22C428.41,476.7,475,443.28,479.82,442a1.41,1.41,0,0,1,1.27.34,1,1,0,0,1-.13,1.48,1,1,0,0,1-.71.25c-5.28,1.75-50.12,34.9-64.56,112.66A1.06,1.06,0,0,1,414.65,557.59Z"/><path class="cls-4" d="M103.6,562.26a1.05,1.05,0,0,1-1-1C96.93,499,56.18,444.17,55.77,443.63a1.06,1.06,0,1,1,1.69-1.27c.41.55,41.51,55.82,47.19,118.76a1.07,1.07,0,0,1-1,1.14Z"/><path class="cls-2" d="M130.81,583.13v0c-1,42-7.45,84.06-23.93,118,0,0,0,0,0,0-2,4.13-4.18,8.12-6.51,12a129,129,0,0,1-24.07,29.63q3.34-18.24,5.36-36.47c.81-7.36,1.43-14.68,1.9-22,34.95-77.12,13.3-206.3,1.9-260-.09-.48-.19-.95-.28-1.43q12.89-7.47,26.21-13.67c1.71,7.31,3.71,16.76,5.84,27.82C124.21,473.9,132.09,528.52,130.81,583.13Z"/><path class="cls-2" d="M480.11,720,467,745.26a92.71,92.71,0,0,1-12.25-7.55v0c-95-68.82-60.27-300.67-53.76-339,9.07,3.51,18,7.36,26.88,11.63-11.31,70.24-22,216.56,23.55,283.14C459.21,704.9,468.66,714,480.11,720Z"/><path class="cls-5" d="M254.86,468.63c-5-3.28-81.45-53.57-105-75.37-1.19-1.09-2.28-2.13-3.18-3.08a42.29,42.29,0,0,1-3.95-4.61c-6.36-8.55-9.78-19-8.78-29.3a12.87,12.87,0,0,1,8.64-11.21c4.65-1.28,7.72-.87,13.84.51,12.64,2.8,30.71,32.07,51.42,62.7C222.47,429.83,238.43,452.67,254.86,468.63Z"/><path class="cls-5" d="M380.57,359.78a43.13,43.13,0,0,1-8.74,25.5c-.19.34-.48.62-.71,1-2.33,2.81-6.8,6.8-12.78,11.54-30.87,24.6-100.82,69.15-103.39,70.81,1.29-1.56,19.71-23.12,51.1-60.31,5.27-6.22,10.88-12.92,16.86-20,23.32-27.69,27.74-41.44,39.42-43.55.38-.05.71-.14,1.09-.19,8.69-1.66,16.24,3.46,17,11.73C380.52,357.45,380.57,358.64,380.57,359.78Z"/><path class="cls-4" d="M165,379.39c-2.1,3.65-7.71,4.36-12.52,1.58s-7-8-4.89-11.63,7.71-4.36,12.52-1.58S167.07,375.74,165,379.39Z"/><path class="cls-4" d="M351.45,378c2.1,3.65,7.71,4.36,12.52,1.58s7-8,4.89-11.63-7.71-4.36-12.52-1.58S349.34,374.33,351.45,378Z"/><path class="cls-4" d="M164.22,526c-4.88-21.15-2.39-54.58-.39-81.45.92-12.35,1.71-23,1.52-29.59-.57-19.95-10.84-39.39-10.95-39.58l3.71-2c.44.83,10.85,20.49,11.45,41.45.19,6.79-.61,17.56-1.54,30-2,26.58-4.43,59.66.3,80.18Z"/><path class="cls-4" d="M353.75,526l-4.1-1c4.74-20.53,2.28-53.62.3-80.21-.93-12.46-1.73-23.22-1.54-30,.6-21,11-40.62,11.45-41.45l3.71,2c-.1.19-10.38,19.63-10.95,39.58-.19,6.56.6,17.23,1.53,29.57C356.15,471.38,358.63,504.83,353.75,526Z"/><path class="cls-4" d="M259.22,333c-31.42,0-52.49-22.77-52.7-23a1,1,0,0,1,1.55-1.41c.21.22,20.68,22.3,51.15,22.3h1.11c31.06-.54,50.16-23.64,50.35-23.87a1.06,1.06,0,0,1,1.64,1.33c-.2.24-19.89,24.09-52,24.65Z"/><path class="cls-8" d="M189.15,237.55a16.16,16.16,0,0,1-9.31-2.78c-7.18-4.91-8.85-14.49-8.92-14.89a1.05,1.05,0,0,1,2.08-.35c0,.09,1.6,9.12,8,13.51,3.38,2.3,7.54,3,12.35,1.94a1,1,0,0,1,1.25.81,1.05,1.05,0,0,1-.82,1.24A22.79,22.79,0,0,1,189.15,237.55Z"/><path class="cls-8" d="M144.32,282.9A34.46,34.46,0,0,1,131,280.17c-5.43-2.35-8.3-5.48-7.48-8.17a1.07,1.07,0,0,1,1.31-.7,1.05,1.05,0,0,1,.7,1.31c-.38,1.24,1.7,3.63,6.3,5.63,8.39,3.62,23.24,4.91,29.8-6.46,6.88-11.91-3.24-23.18-12.94-30.54-.3-.23-.53-.39-.65-.5a1.05,1.05,0,1,1,1.34-1.62l.58.44c14.66,11.13,19.45,22.94,13.49,33.27C159.12,280.34,151.6,282.9,144.32,282.9Z"/><path class="cls-8" d="M399.22,251c-12.23,0-21.27-3.14-26.87-9.33a23.58,23.58,0,0,1-5.89-17,1,1,0,0,1,1.15-.94,1.05,1.05,0,0,1,.94,1.15,21.93,21.93,0,0,0,5.38,15.41c5.19,5.72,13.7,8.62,25.29,8.62h.11a1.05,1.05,0,1,1-.11,2.1Z"/><path class="cls-8" d="M329.85,208.51c-17,0-34.68-9.17-40.28-16.81a1.05,1.05,0,1,1,1.7-1.24c6.91,9.42,33.16,21.3,52.39,13.42,18.54-7.6,12.78-30.31,12.53-31.27a1.06,1.06,0,0,1,.75-1.29,1.05,1.05,0,0,1,1.28.75c.07.26,6.5,25.45-13.77,33.75A38.26,38.26,0,0,1,329.85,208.51Z"/><path class="cls-8" d="M170.7,198.81c-7.24,0-16.46-2-21.9-10.61-10-15.82.66-25.76.77-25.86A1.05,1.05,0,0,1,151,163.9c-.39.35-9.4,8.89-.41,23.18s30,8.42,30.18,8.36a1,1,0,0,1,1.31.71,1.05,1.05,0,0,1-.71,1.3A41.57,41.57,0,0,1,170.7,198.81Z"/><path class="cls-8" d="M107.25,238.36a1,1,0,0,1-.67-.25,1,1,0,0,1-.13-1.48c8.35-9.86,30.9-3.87,31.86-3.6a1.05,1.05,0,1,1-.55,2c-.22-.07-22.21-5.91-29.7,2.93A1,1,0,0,1,107.25,238.36Z"/><path class="cls-8" d="M111,347.4a22.23,22.23,0,0,1-9.67-2.26l.9-1.89c22.29,10.6,41.37-23.57,41.56-23.92l1.85,1C145.44,320.66,130.53,347.4,111,347.4Z"/><path class="cls-8" d="M323.61,347.21a1.05,1.05,0,0,1-.79-.35c-4.78-5.41-6.3-11.2-4.18-15.91,2.25-5,8.18-8,15.84-8,14.74,0,24.09,16.43,24.48,17.13a1,1,0,1,1-1.83,1c-.09-.16-9.15-16.05-22.65-16.05-6.81,0-12,2.52-13.92,6.75-1.77,3.92-.37,8.9,3.83,13.65a1,1,0,0,1-.09,1.49A1.08,1.08,0,0,1,323.61,347.21Z"/><path class="cls-8" d="M363.1,298.8c-1.64,0-3.34,0-5.09-.09a1.05,1.05,0,0,1-1-1.09,1.09,1.09,0,0,1,1.09-1c38.76,1.3,48-13.08,48.08-13.23a1.06,1.06,0,0,1,1.44-.35,1,1,0,0,1,.36,1.44C407.6,285.08,399,298.8,363.1,298.8Z"/><path class="cls-8" d="M407.06,325.06a1.05,1.05,0,0,1-.95-.6c-13.26-27.46-34.4-26-35.29-25.9a1,1,0,0,1-1.14-.95,1.05,1.05,0,0,1,.95-1.14c.27,0,23.46-1.73,37.38,27.08a1.06,1.06,0,0,1-.5,1.41A1,1,0,0,1,407.06,325.06Z"/><path class="cls-8" d="M349,285a1.05,1.05,0,0,1,0-2.1c11.41,0,20.7-11.28,20.7-25.14a1,1,0,1,1,2.1,0C371.78,272.76,361.55,285,349,285Z"/><path class="cls-8" d="M370.73,210.55a1.05,1.05,0,0,1,0-2.1c14.93,0,27.54-5.55,27.54-12.1a1.06,1.06,0,0,1,2.11,0C400.38,204.31,387.35,210.55,370.73,210.55Z"/><path class="cls-8" d="M407.06,235.09a1,1,0,0,1-.91-.52c-.08-.14-8.51-14.09-25.61-15.55a1,1,0,0,1-1-1.14,1,1,0,0,1,1.13-.95c18.21,1.55,26.88,16,27.25,16.58a1.06,1.06,0,0,1-.38,1.44A1,1,0,0,1,407.06,235.09Z"/><path class="cls-8" d="M370.73,196a1,1,0,0,1-.91-.53,1,1,0,0,1,.39-1.44c16.15-9.22,13.15-21.3,13.12-21.42a1.05,1.05,0,1,1,2-.54c0,.14,3.43,13.77-14.11,23.79A1.1,1.1,0,0,1,370.73,196Z"/><path class="cls-8" d="M119.17,301.37A36.19,36.19,0,0,1,98,294.32a1.05,1.05,0,1,1,1.21-1.72c23.08,16.25,44.57-2.36,44.79-2.55a1.05,1.05,0,0,1,1.39,1.58C145.22,291.77,134.14,301.37,119.17,301.37Z"/><path class="cls-8" d="M397.64,351a.55.55,0,0,1-.18,0,1,1,0,0,1-.85-1.21c.09-.52,2.08-12.73-8.11-16.82-3.67-1.47-6.84-1.2-9.45.77-3.74,2.84-5.31,8.58-4.88,12.54a1.07,1.07,0,0,1-.93,1.17,1,1,0,0,1-1.16-.94c-.51-4.65,1.29-11.1,5.7-14.44,2.23-1.69,6-3.25,11.5-1.05,11.79,4.72,9.42,19,9.4,19.13A1.06,1.06,0,0,1,397.64,351Z"/><path class="cls-4" d="M313.32,225.34c-14.77-8.51-27.88-10.5-43.93-13a1.11,1.11,0,0,1-.43-2c7.86-4.86,17-5.28,25.92-3.64C304,208.67,312.28,215,315,224.1a1.13,1.13,0,0,1-1.7,1.24Z"/><path class="cls-4" d="M207,224.1c5.75-18.37,30.84-22.91,46.06-13.74a1.11,1.11,0,0,1-.42,2c-16.07,2.48-29.16,4.47-43.94,13a1.13,1.13,0,0,1-1.7-1.24Z"/><path class="cls-4" d="M280,241.36a2.1,2.1,0,0,1-1.4-3.68c11-9.66,28.51-6.8,29.48-6.31a2.1,2.1,0,0,1-1.58,3.88c-.78-.14-16-2.49-25.11,5.58A2.07,2.07,0,0,1,280,241.36Z"/><path class="cls-4" d="M215.19,243.13a2.1,2.1,0,0,1-1.39-3.68c11-9.69,28.51-6.79,29.48-6.31a2.11,2.11,0,0,1-1.59,3.89c-.77-.14-15.94-2.5-25.11,5.58A2.11,2.11,0,0,1,215.19,243.13Z"/><path class="cls-4" d="M288,238.63a5.66,5.66,0,1,0,5.63-6.18A5.93,5.93,0,0,0,288,238.63Z"/><ellipse class="cls-4" cx="229.39" cy="239.26" rx="5.63" ry="6.18"/><path class="cls-4" d="M265.06,275.36h-.8C254,275,249.85,269.2,249.68,269a1,1,0,0,1,.25-1.45,1,1,0,0,1,1.46.24c.15.21,3.81,5.17,12.95,5.51a19.74,19.74,0,0,0,14.82-6.18,1,1,0,0,1,1.48-.12,1,1,0,0,1,.12,1.47A21.54,21.54,0,0,1,265.06,275.36Z"/><path class="cls-10" d="M285.35,288.16a34.84,34.84,0,0,1-12.75-3.86c-6.36-3.25-16.55-1.61-18.76,0s-12.18,3.74-14.49,3.24c0,0,10.13,20.24,24.5,20.16S285.35,288.16,285.35,288.16Z"/><path class="cls-4" d="M266.6,296l-1.39,0a57,57,0,0,1-26.43-7.58,1.05,1.05,0,0,1-.32-1.45,1.06,1.06,0,0,1,1.45-.33,55.75,55.75,0,0,0,25.37,7.26c14.27.45,21.92-6.22,22-6.29a1.05,1.05,0,0,1,1.4,1.57C288.34,289.48,280.8,296,266.6,296Z"/><path class="cls-8" d="M192.15,137.69a1,1,0,0,1-.86-.45,1,1,0,0,1,.26-1.46c.75-.53,19-13,61.19-14.36s56.85,8.9,57.45,9.33a1.06,1.06,0,0,1-1.24,1.71c-.14-.1-14.76-10.31-56.14-8.94s-59.88,13.86-60.06,14A1,1,0,0,1,192.15,137.69Z"/><path class="cls-4" d="M148.28,204.57c-19.67,0-25.17-16.75-27-22.42-.24-.72-.41-1.26-.54-1.52a1,1,0,1,1,1.86-1,15,15,0,0,1,.68,1.84c2,6.12,7.29,22.43,27.65,20.86a1.08,1.08,0,0,1,1.13,1,1.05,1.05,0,0,1-1,1.13C150.11,204.54,149.18,204.57,148.28,204.57Z"/><path class="cls-4" d="M82.58,257.05a1.06,1.06,0,0,1-.75-.32,1,1,0,0,1,0-1.48c.52-.51,13.17-12.49,38.46-6.37a1.05,1.05,0,1,1-.49,2.05c-24.09-5.84-36.38,5.71-36.51,5.82A1,1,0,0,1,82.58,257.05Z"/><path class="cls-4" d="M409.67,308.76a1.08,1.08,0,0,1-.86-.44c-.07-.1-7.48-9.45-23.37-9.61a1.05,1.05,0,0,1,0-2.1h0c14.43.14,23.15,7.81,25.06,10.48a1.06,1.06,0,0,1-.24,1.47A1.08,1.08,0,0,1,409.67,308.76Z"/><path class="cls-4" d="M388.89,268.8h-.13a1.05,1.05,0,0,1-.91-1.18c1.22-9.36,9.77-13.87,24.1-12.69l.45,0a1.05,1.05,0,0,1,0,2.1c-.1,0-.3,0-.6,0-7.54-.62-20.42,0-21.83,10.87A1.06,1.06,0,0,1,388.89,268.8Z"/></g></g></svg>